<?xml version="1.0" encoding="UTF-8"?>
<!DOCTYPE svg PUBLIC "-//W3C//DTD SVG 1.1//EN" "http://www.w3.org/Graphics/SVG/1.1/DTD/svg11.dtd">
<svg xmlns="http://www.w3.org/2000/svg" version="1.1" width="256px" height="256px" style="shape-rendering:geometricPrecision; text-rendering:geometricPrecision; image-rendering:optimizeQuality; fill-rule:evenodd; clip-rule:evenodd" xmlns:xlink="http://www.w3.org/1999/xlink">
<g><path style="opacity:0.963" fill="#ffffff" d="M 76.5,-0.5 C 78.5,-0.5 80.5,-0.5 82.5,-0.5C 88.8529,7.36921 93.5196,16.2025 96.5,26C 96.0531,28.9559 95.2197,31.7892 94,34.5C 91.4782,37.0218 88.9782,39.5218 86.5,42C 87.6105,45.0551 89.1105,47.8884 91,50.5C 93.128,47.3699 95.628,44.5366 98.5,42C 104.426,39.8573 110.426,38.024 116.5,36.5C 122.293,38.4485 126.793,42.1152 130,47.5C 132.333,40.5 134.667,33.5 137,26.5C 138.875,20.8446 142.708,19.0113 148.5,21C 156.206,22.5101 163.873,24.1768 171.5,26C 172.931,26.4652 174.097,27.2986 175,28.5C 176.47,31.7439 177.637,35.0772 178.5,38.5C 178.369,39.2389 178.536,39.9056 179,40.5C 180.372,39.0899 181.205,37.4233 181.5,35.5C 182.898,31.7123 185.065,28.3789 188,25.5C 186.435,16.6934 189.268,9.86003 196.5,5C 201.317,3.23412 205.983,1.40078 210.5,-0.5C 214.167,-0.5 217.833,-0.5 221.5,-0.5C 224.409,10.1422 222.575,20.1422 216,29.5C 214.363,31.8102 212.196,33.3102 209.5,34C 205.118,34.4569 200.784,34.4569 196.5,34C 193.099,37.6388 190.932,41.8055 190,46.5C 192.5,42.6667 195.667,39.5 199.5,37C 201.5,36.3333 203.5,36.3333 205.5,37C 211.245,41.2894 217.079,45.456 223,49.5C 226.609,68.0302 224.276,85.6969 216,102.5C 214.08,108.766 212.413,115.1 211,121.5C 208.61,144.438 205.61,167.438 202,190.5C 197.683,209.807 188.683,226.473 175,240.5C 165.3,248.102 154.467,253.102 142.5,255.5C 132.833,255.5 123.167,255.5 113.5,255.5C 88.8317,250.684 71.3317,236.684 61,213.5C 57.0424,203.653 53.7091,193.653 51,183.5C 48.5723,162.848 46.239,142.181 44,121.5C 42.4234,112.016 39.4234,103.016 35,94.5C 32.9617,86.6036 31.4617,78.6036 30.5,70.5C 30.7433,66.8491 32.4099,64.0157 35.5,62C 42.7815,56.2108 50.4482,51.0441 58.5,46.5C 60.4225,47.0924 62.0892,48.0924 63.5,49.5C 63.5,50.8333 64.1667,51.5 65.5,51.5C 66.4013,52.2905 67.0679,53.2905 67.5,54.5C 67.9731,55.9063 68.9731,56.573 70.5,56.5C 73.1288,59.6306 75.9621,62.6306 79,65.5C 80.3076,63.3586 81.8076,61.3586 83.5,59.5C 79.1148,54.0611 75.7815,48.0611 73.5,41.5C 70.1956,39.8602 67.529,37.5269 65.5,34.5C 65.3404,32.847 64.6737,31.5137 63.5,30.5C 62.7369,27.8589 62.5702,25.1922 63,22.5C 66.4894,14.1802 70.9894,6.51353 76.5,-0.5 Z M 208.5,12.5 C 209.376,12.3691 210.043,12.7025 210.5,13.5C 209.568,15.7954 208.735,18.1287 208,20.5C 204.648,24.744 201.815,24.4107 199.5,19.5C 200,18.5 200.5,17.5 201,16.5C 203.514,14.9958 206.014,13.6624 208.5,12.5 Z M 78.5,17.5 C 79.5,18.1667 80.5,18.8333 81.5,19.5C 83.2151,21.9206 84.0484,24.5872 84,27.5C 80.1401,32.8497 76.9734,32.3497 74.5,26C 76.2383,23.3568 77.5716,20.5235 78.5,17.5 Z M 188.5,63.5 C 190.027,63.573 191.027,62.9063 191.5,61.5C 194.629,57.8691 197.963,54.3691 201.5,51C 205.253,51.0453 208.419,52.5453 211,55.5C 213.956,72.4291 211.29,88.4291 203,103.5C 198.95,118.914 196.783,134.58 196.5,150.5C 194.864,154.21 194.198,158.21 194.5,162.5C 193.409,183.822 187.242,203.488 176,221.5C 162.407,237.979 144.907,245.646 123.5,244.5C 99.5891,242.948 82.4224,231.281 72,209.5C 67.0244,197.223 63.5244,184.556 61.5,171.5C 61.9382,171.565 62.2716,171.399 62.5,171C 61.9341,170.005 61.2674,169.172 60.5,168.5C 59.7968,145.661 56.6301,122.995 51,100.5C 48.5943,96.3615 46.761,92.0282 45.5,87.5C 45.5905,84.8478 44.9238,82.5145 43.5,80.5C 43.1231,77.4752 42.9565,74.4752 43,71.5C 48,67.8333 53,64.1667 58,60.5C 63.9768,66.1452 69.6434,72.1452 75,78.5C 76.0395,80.7463 77.2062,82.913 78.5,85C 77.1258,87.5829 75.6258,90.0829 74,92.5C 73.4163,95.2567 73.7496,97.9234 75,100.5C 78.8241,104.814 82.1575,109.481 85,114.5C 87.8384,118.035 91.0051,118.368 94.5,115.5C 95.5617,112.897 95.7284,110.23 95,107.5C 91.7898,103.576 88.9564,99.4096 86.5,95C 87.6513,92.5351 88.6513,90.0351 89.5,87.5C 91.9938,85.594 91.9938,83.594 89.5,81.5C 88.5588,79.5336 87.5588,77.5336 86.5,75.5C 92.1667,68.1667 97.8333,60.8333 103.5,53.5C 107.337,51.9111 111.17,50.2444 115,48.5C 116.045,49.3734 116.878,50.3734 117.5,51.5C 117.973,52.9063 118.973,53.573 120.5,53.5C 127.17,59.6729 132.503,66.8396 136.5,75C 133.175,81.9846 129.841,88.9846 126.5,96C 130.459,102.083 134.292,108.249 138,114.5C 143.338,119.041 147.171,118.041 149.5,111.5C 147.061,105.456 143.728,99.9558 139.5,95C 143.236,88.3609 146.57,81.5276 149.5,74.5C 146.788,68.2938 143.455,62.4605 139.5,57C 142.14,48.7473 144.973,40.5807 148,32.5C 154,34.2587 160,35.9254 166,37.5C 168.714,46.5945 171.714,55.5945 175,64.5C 174.164,74.6351 175.664,84.4684 179.5,94C 176.465,99.2338 173.299,104.4 170,109.5C 169.776,116.477 172.943,118.644 179.5,116C 183.333,110.167 187.167,104.333 191,98.5C 191.141,91.9049 189.807,85.5716 187,79.5C 185.946,73.8855 186.446,68.5522 188.5,63.5 Z M 79.5,165.5 C 79.5,168.5 79.5,171.5 79.5,174.5C 77.6614,173.492 76.3281,171.992 75.5,170C 76.7332,168.333 78.0665,166.833 79.5,165.5 Z M 101.5,165.5 C 102.685,166.857 103.685,168.357 104.5,170C 104.257,170.902 103.923,171.735 103.5,172.5C 102.272,173.306 101.272,174.306 100.5,175.5C 101.588,172.444 101.588,169.444 100.5,166.5C 100.5,165.833 100.833,165.5 101.5,165.5 Z M 153.5,165.5 C 154.167,165.5 154.5,165.833 154.5,166.5C 153.286,169.129 153.286,171.796 154.5,174.5C 154.167,174.5 153.833,174.5 153.5,174.5C 152.315,173.143 151.315,171.643 150.5,170C 151.315,168.357 152.315,166.857 153.5,165.5 Z M 175.5,165.5 C 180.833,168.5 180.833,171.5 175.5,174.5C 175.5,171.5 175.5,168.5 175.5,165.5 Z"/></g>
<g><path style="opacity:0.029" fill="#ffffff" d="M 81.5,19.5 C 80.5,18.8333 79.5,18.1667 78.5,17.5C 78.3691,16.6236 78.7025,15.9569 79.5,15.5C 80.7051,16.5769 81.3718,17.9102 81.5,19.5 Z"/></g>
<g><path style="opacity:0.014" fill="#ffffff" d="M 63.5,30.5 C 64.6737,31.5137 65.3404,32.847 65.5,34.5C 63.8958,33.713 63.2291,32.3797 63.5,30.5 Z"/></g>
<g><path style="opacity:0.09" fill="#ffffff" d="M 181.5,35.5 C 181.205,37.4233 180.372,39.0899 179,40.5C 178.536,39.9056 178.369,39.2389 178.5,38.5C 179.272,37.3065 180.272,36.3065 181.5,35.5 Z"/></g>
<g><path style="opacity:0.478" fill="#ffffff" d="M 63.5,49.5 C 64.5,49.8333 65.1667,50.5 65.5,51.5C 64.1667,51.5 63.5,50.8333 63.5,49.5 Z"/></g>
<g><path style="opacity:0.325" fill="#ffffff" d="M 117.5,51.5 C 119.027,51.427 120.027,52.0937 120.5,53.5C 118.973,53.573 117.973,52.9063 117.5,51.5 Z"/></g>
<g><path style="opacity:0.004" fill="#ffffff" d="M 67.5,54.5 C 69.0269,54.427 70.0269,55.0937 70.5,56.5C 68.9731,56.573 67.9731,55.9063 67.5,54.5 Z"/></g>
<g><path style="opacity:0.008" fill="#ffffff" d="M 191.5,61.5 C 191.027,62.9063 190.027,63.573 188.5,63.5C 188.973,62.0937 189.973,61.427 191.5,61.5 Z"/></g>
<g><path style="opacity:0.014" fill="#ffffff" d="M 43.5,80.5 C 44.9238,82.5145 45.5905,84.8478 45.5,87.5C 44.0762,85.4855 43.4095,83.1522 43.5,80.5 Z"/></g>
<g><path style="opacity:0.025" fill="#ffffff" d="M 89.5,81.5 C 91.9938,83.594 91.9938,85.594 89.5,87.5C 90.3799,85.6112 90.3799,83.6112 89.5,81.5 Z"/></g>
<g><path style="opacity:0.98" fill="#ffffff" d="M 147.5,185.5 C 147.5,184.167 146.833,183.5 145.5,183.5C 142.83,179.988 140.33,176.322 138,172.5C 137.023,169.183 137.856,166.516 140.5,164.5C 142.262,163.738 143.262,162.404 143.5,160.5C 145.587,159.415 146.92,157.749 147.5,155.5C 157.025,147.229 167.358,146.062 178.5,152C 196.731,166.422 195.398,179.089 174.5,190C 164.606,193.775 155.606,192.275 147.5,185.5 Z M 153.5,165.5 C 154.167,165.5 154.5,165.833 154.5,166.5C 153.286,169.129 153.286,171.796 154.5,174.5C 154.167,174.5 153.833,174.5 153.5,174.5C 152.315,173.143 151.315,171.643 150.5,170C 151.315,168.357 152.315,166.857 153.5,165.5 Z M 175.5,165.5 C 180.833,168.5 180.833,171.5 175.5,174.5C 175.5,171.5 175.5,168.5 175.5,165.5 Z"/></g>
<g><path style="opacity:0.973" fill="#ffffff" d="M 116.5,168.5 C 116.483,170.565 116.15,172.565 115.5,174.5C 106.508,190.886 93.5078,195.386 76.5,188C 68.399,182.947 64.2324,175.78 64,166.5C 66.4685,160.852 70.3018,156.519 75.5,153.5C 77.0269,153.573 78.0269,152.906 78.5,151.5C 90.9342,145.785 101.768,148.119 111,158.5C 111.953,160.455 113.287,162.122 115,163.5C 116.009,165.025 116.509,166.692 116.5,168.5 Z M 79.5,165.5 C 79.5,168.5 79.5,171.5 79.5,174.5C 77.6614,173.492 76.3281,171.992 75.5,170C 76.7332,168.333 78.0665,166.833 79.5,165.5 Z M 101.5,165.5 C 102.685,166.857 103.685,168.357 104.5,170C 104.257,170.902 103.923,171.735 103.5,172.5C 102.272,173.306 101.272,174.306 100.5,175.5C 101.588,172.444 101.588,169.444 100.5,166.5C 100.5,165.833 100.833,165.5 101.5,165.5 Z"/></g>
<g><path style="opacity:0.631" fill="#ffffff" d="M 78.5,151.5 C 78.0269,152.906 77.0269,153.573 75.5,153.5C 75.9731,152.094 76.9731,151.427 78.5,151.5 Z"/></g>
<g><path style="opacity:0.013" fill="#ffffff" d="M 196.5,150.5 C 196.283,154.705 195.617,158.705 194.5,162.5C 194.198,158.21 194.864,154.21 196.5,150.5 Z"/></g>
<g><path style="opacity:0.749" fill="#ffffff" d="M 147.5,155.5 C 146.92,157.749 145.587,159.415 143.5,160.5C 144.08,158.251 145.413,156.585 147.5,155.5 Z"/></g>
<g><path style="opacity:0.933" fill="#ffffff" d="M 143.5,160.5 C 143.262,162.404 142.262,163.738 140.5,164.5C 140.738,162.596 141.738,161.262 143.5,160.5 Z"/></g>
<g><path style="opacity:0.569" fill="#ffffff" d="M 175.5,164.5 C 174.833,164.5 174.5,164.833 174.5,165.5C 173.636,164.312 172.636,163.145 171.5,162C 173.412,161.721 174.746,162.554 175.5,164.5 Z"/></g>
<g><path style="opacity:0.059" fill="#ffffff" d="M 80.5,165.5 C 80.5,164.833 80.1667,164.5 79.5,164.5C 80.0024,162.915 81.0024,162.415 82.5,163C 81.9341,163.995 81.2674,164.828 80.5,165.5 Z"/></g>
<g><path style="opacity:0.263" fill="#ffffff" d="M 101.5,165.5 C 100.833,165.5 100.5,165.833 100.5,166.5C 99.4036,164.897 98.0703,163.397 96.5,162C 98.7715,162.077 100.438,163.243 101.5,165.5 Z"/></g>
<g><path style="opacity:0.035" fill="#ffffff" d="M 154.5,166.5 C 154.5,165.833 154.167,165.5 153.5,165.5C 154.122,164.373 154.955,163.373 156,162.5C 156.348,164.14 155.848,165.473 154.5,166.5 Z"/></g>
<g><path style="opacity:0.216" fill="#ffffff" d="M 60.5,168.5 C 61.2674,169.172 61.9341,170.005 62.5,171C 62.2716,171.399 61.9382,171.565 61.5,171.5C 60.596,170.791 60.2627,169.791 60.5,168.5 Z"/></g>
<g><path style="opacity:0.02" fill="#ffffff" d="M 116.5,168.5 C 117.139,169.097 117.472,169.93 117.5,171C 117.613,172.699 116.947,173.866 115.5,174.5C 116.15,172.565 116.483,170.565 116.5,168.5 Z"/></g>
<g><path style="opacity:0.812" fill="#ffffff" d="M 103.5,172.5 C 103.446,174.632 102.446,175.965 100.5,176.5C 100.5,176.167 100.5,175.833 100.5,175.5C 101.272,174.306 102.272,173.306 103.5,172.5 Z"/></g>
<g><path style="opacity:0.09" fill="#ffffff" d="M 153.5,174.5 C 153.833,174.5 154.167,174.5 154.5,174.5C 155.338,174.842 155.672,175.508 155.5,176.5C 154.167,176.5 153.5,175.833 153.5,174.5 Z"/></g>
<g><path style="opacity:0.212" fill="#ffffff" d="M 174.5,174.5 C 174.5,175.167 174.833,175.5 175.5,175.5C 174.746,177.446 173.412,178.279 171.5,178C 172.636,176.855 173.636,175.688 174.5,174.5 Z"/></g>
<g><path style="opacity:0.42" fill="#ffffff" d="M 79.5,175.5 C 81.5441,176.031 83.2107,177.198 84.5,179C 82.2285,178.923 80.5618,177.757 79.5,175.5 Z"/></g>
<g><path style="opacity:0.624" fill="#ffffff" d="M 155.5,176.5 C 157.196,176.685 158.529,177.519 159.5,179C 157.588,179.279 156.254,178.446 155.5,176.5 Z"/></g>
<g><path style="opacity:0.4" fill="#ffffff" d="M 145.5,183.5 C 146.833,183.5 147.5,184.167 147.5,185.5C 146.5,185.167 145.833,184.5 145.5,183.5 Z"/></g>
<g><path style="opacity:0.986" fill="#ffffff" d="M 119.5,227.5 C 118.486,226.326 117.153,225.66 115.5,225.5C 112.573,224.243 110.239,222.243 108.5,219.5C 108.34,217.847 107.674,216.514 106.5,215.5C 106.433,214.041 106.766,212.708 107.5,211.5C 121.481,212.104 135.314,212.104 149,211.5C 148.409,218.459 144.909,223.625 138.5,227C 132.21,230.081 125.877,230.247 119.5,227.5 Z"/></g>
<g><path style="opacity:0.267" fill="#ffffff" d="M 107.5,211.5 C 106.766,212.708 106.433,214.041 106.5,215.5C 103.547,213.436 103.88,212.103 107.5,211.5 Z"/></g>
<g><path style="opacity:0.212" fill="#ffffff" d="M 106.5,215.5 C 107.674,216.514 108.34,217.847 108.5,219.5C 106.896,218.713 106.229,217.38 106.5,215.5 Z"/></g>
<g><path style="opacity:0.118" fill="#ffffff" d="M 115.5,225.5 C 117.153,225.66 118.486,226.326 119.5,227.5C 119.565,227.938 119.399,228.272 119,228.5C 117.482,227.837 116.315,226.837 115.5,225.5 Z"/></g>
</svg>
